<?xml version="1.0" encoding="UTF-8" standalone="no"?>
<!-- Created with Inkscape (http://www.inkscape.org/) -->

<svg
   version="1.1"
   id="svg424"
   width="1536"
   height="2048"
   viewBox="0 0 1536 2048"
   sodipodi:docname="filelogo.svg"
   inkscape:version="1.2.2 (732a01da63, 2022-12-09)"
   xmlns:inkscape="http://www.inkscape.org/namespaces/inkscape"
   xmlns:sodipodi="http://sodipodi.sourceforge.net/DTD/sodipodi-0.dtd"
   xmlns="http://www.w3.org/2000/svg"
   xmlns:svg="http://www.w3.org/2000/svg">
  <defs
     id="defs428" />
  <sodipodi:namedview
     id="namedview426"
     pagecolor="#ffffff"
     bordercolor="#000000"
     borderopacity="0.25"
     inkscape:showpageshadow="2"
     inkscape:pageopacity="0.0"
     inkscape:pagecheckerboard="0"
     inkscape:deskcolor="#d1d1d1"
     showgrid="false"
     inkscape:zoom="0.48925781"
     inkscape:cx="378.12375"
     inkscape:cy="1024"
     inkscape:window-width="2560"
     inkscape:window-height="1369"
     inkscape:window-x="1912"
     inkscape:window-y="-8"
     inkscape:window-maximized="1"
     inkscape:current-layer="g430" />
  <g
     inkscape:groupmode="layer"
     inkscape:label="Image"
     id="g430">
    <path
       style="fill:#04d9ff;stroke:none;fill-opacity:1"
       d="m 515.46307,795.81437 v 1 c -20.849,8.726 -40.397,22.897 -60,34.15 -40.042,22.985 -80.28,45.709 -120,69.247 -14.234,8.434 -28.784,16.338 -43,24.804 -5.448,3.244 -12.764,5.915 -14.251,12.803 -1.254,5.809 2.941,11.226 5.672,15.996 6.133,10.7 12.323,21.37 18.568,32 23.182,39.47003 45.823,79.29003 68.59,119.00003 5.75,10.03 11.555,20.03 17.41,30 2.589,4.41 4.882,10.16 10.026,12.1 6.003,2.27 12.057,-2.7 16.985,-5.52 13.029,-7.47 26.066,-14.95 39,-22.58 v 205 51 c 0,6.26 -1.63,14.91 3.228,19.77 3.972,3.97 9.628,3.23 14.772,3.23 h 34 140 38 c 4.884,0 11.732,1.19 15.566,-2.57 4.023,-3.95 2.434,-12.31 2.434,-17.43 v -45 c 58.748,35.96 119.425,69 179,103.58 14.65,8.5 29.314,16.98 44,25.42 5.59,3.22 12.14,8.51 18.99,6.35 5.27,-1.67 7.44,-6.95 10.02,-11.35 5.66,-9.63 11.07,-19.4 16.79,-29 23.82,-40 46.87003,-80.55 69.92003,-121 6.28,-11.03 12.73,-21.97 19,-33 2.56,-4.5 6.29,-9.51 4.84,-15 -1.51,-5.74 -7.91,-8.28 -12.56,-11.01 -12.67,-7.44 -25.43,-16.31 -39,-21.99 17.39,-14.3 40.47,-24.22 60,-35.42 38.07,-21.83 75.86,-44.16 114,-65.86 15.06,-8.57 29.94,-17.44 45,-26 5.96,-3.39 15.29,-6.73 17.72,-13.72 2.17,-6.26 -2.08,-11.87 -5.12,-17 -6.27,-10.59 -12.35,-21.31 -18.45,-32 -22.71,-39.78003 -45.73,-79.38003 -68.73,-119.00003 -5.79,-9.98 -11.55,-19.979 -17.27,-30 -2.55,-4.474 -4.99,-10.286 -10.15,-12.257 -6.17,-2.355 -11.98,2.524 -17,5.407 -12.95,7.431 -26.85,14.176 -39,22.85 v -203 -52 c 0,-6.249 1.71,-15.527 -2.65,-20.66 -4.1,-4.814 -10.65,-4.34 -16.35,-4.34 h -38 -137.00003 -35 c -5.067,0 -11.499,-0.584 -15.775,2.728 -5.031,3.895 -4.362,11.588 -4.172,17.232 0.507,15.029 -0.053,30.015 -0.053,45.04 -58.357,-35.717 -118.577,-68.927 -178,-102.85 l -43,-24.729 c -5.932,-3.401 -12.695,-8.997 -19.996,-6.987 -5.649,1.555 -8.2,7.917 -10.854,12.566 -6.114,10.711 -12.437,21.3 -18.571,32 -23.163,40.403 -46.833,80.521 -69.86,121 -5.517,9.698 -11.083,19.365 -16.707,29 -2.552,4.372 -5.973,9.689 -4.574,14.996 1.566,5.944 8.724,8.652 13.562,11.425 12.534,7.186 24.917,15.47 38,21.579 m 76,-222 c 32.212,23.004 69.754,40.548 104,60.424 39.775,23.085 79.346,50.127 121,69.576 -5.352,18.542 -20.218,37.362 -29.989,54 -16.368,27.869 -32.212,56.047 -48.435,84 -8.529,14.695 -18.853,29.399 -25.576,45 -17.789,-3.43 -37.314,-20.145 -53,-29.15 -40.041,-22.984 -80.281,-45.71 -120,-69.247 -12.9,-7.644 -25.995,-14.988 -39,-22.453 -3.532,-2.028 -12.215,-5.258 -13.582,-9.363 -1.272,-3.822 3.643,-9.669 5.432,-12.787 6.14,-10.695 12.438,-21.301 18.571,-32 17.807,-31.06 35.906,-61.95 53.729,-93 8.042,-14.011 15.361,-33.667 26.85,-45 m 12.015,26.743 c -8.841,3.433 -15.617,22.335 -20.165,30.257 -16.09,28.031 -32.353,55.96 -48.429,84 -3.438,5.998 -14.527,29.716 3.575,25.387 9.717,-2.323 16.835,-22.381 21.425,-30.387 17.883,-31.193 41.509,-62.793 55.215,-96 3.109,-7.533 -3.096,-16.567 -11.621,-13.257 m 55.986,30.03 c -9.971,0.327 -16.462,18.754 -20.72,26.227 -15.81,27.748 -31.976,55.294 -47.86,83 -3.814,6.653 -20.203,29.647 -2.42,30.872 10.641,0.732 16.594,-17.354 21.01,-24.872 16.764,-28.544 33.34,-57.227 49.708,-86 3.72,-6.539 19.104,-29.844 0.282,-29.227 m 395.99903,11.227 v 261 H 844.46307 v -261 h 211.00003 m -344.99603,19.613 c -8.033,1.934 -12.591,14.89 -16.285,21.387 -4.161,7.318 -16.224,21.179 -14.245,29.999 1.306,5.822 7.853,8.742 12.526,11.422 l 36,20.729 c 4.664,2.661 10.305,6.859 15.985,5.183 7.765,-2.292 12.059,-14.872 15.734,-21.333 4.475,-7.866 15.643,-20.47 14.048,-29.996 -1.012,-6.047 -8.021,-8.825 -12.767,-11.58 -11.641,-6.756 -23.298,-13.491 -35,-20.143 -4.597,-2.614 -10.366,-7.024 -15.996,-5.668 m 180,2.96 c -8.419,2.448 -9.404,14.413 -0.999,17.685 9.175,3.572 24.191,0.742 33.995,0.742 h 79.00003 c 9.13,0 28.21,3.599 35.89,-1.742 8.29,-5.77 2.67,-16.298 -5.89,-17.153 -31,-3.097 -63.83003,-0.105 -95.00003,-0.105 -14.189,0 -33.369,-3.392 -46.996,0.573 m -174.004,18.427 36,21 -14,25 -37,-21 15,-25 m 174.004,42.573 c -8.419,2.448 -9.404,14.413 -0.999,17.685 9.175,3.572 24.191,0.742 33.995,0.742 h 79.00003 c 9.13,0 28.21,3.599 35.89,-1.742 8.29,-5.77 2.67,-16.298 -5.89,-17.153 -30.67,-3.064 -63.16003,-0.105 -94.00003,-0.105 -14.482,0 -34.089,-3.473 -47.996,0.573 m -65.004,2.427 c 0,46.077 2.064,92.276 0.653,138.348 -0.378,12.35 0.014,24.601 0.014,36.985 0,5.113 -0.944,11.23 2.902,15.277 4.172,4.387 10.951,3.39 16.431,3.39 h 38 157.00003 v 1 c -42.12003,22.19 -82.69003,47.74 -124.00003,71.42 l -30,17.30003 c -4.032,2.31 -9.568,5.21 -10.461,10.28 -0.903,5.12 4.029,10.88 6.45,15 7.019,11.95 13.718,24.09 20.81,36 16.925,28.42 33.171,57.3 49.621,86 8.83,15.4 19.55,30.69 26.58,47 -42.41,-19.8 -82.314,-47.54 -123,-70.72 -10.027,-5.71 -19.994,-11.53 -30,-17.28 -3.934,-2.26 -9.164,-6.56 -13.996,-5.52 -5.388,1.16 -7.944,7.24 -10.428,11.52 l -19,33 c -26.593,45.82 -54.887,91.13 -79.576,138 h -1 v -142 -35 c 0,-4.76 0.997,-10.91 -2.434,-14.77 -3.821,-4.3 -10.405,-3.23 -15.566,-3.23 h -39 -158 v -1 c 13.891,-5.99 26.854,-15.23 40,-22.72 29.096,-16.58 58.124,-33.31 87,-50.27 9.605,-5.64 19.443,-10.89 29,-16.61 3.932,-2.36 8.996,-5.26 9.393,-10.40003 0.39,-5.05 -4.424,-10.83 -6.814,-15 -6.708,-11.7 -13.622,-23.28 -20.298,-35 -16.758,-29.413 -33.713,-58.722 -50.705,-88 -8.519,-14.678 -18.863,-29.422 -25.576,-45 l 47,26.576 75,43.223 32,18.482 12.999,4.721 10.8,-12.002 20.201,-35 50.15,-87 27.85,-47 m -163.957,15.859 c -4.776,2.022 -7.051,7.931 -9.464,12.141 -6.017,10.495 -15.737,22.294 -18.937,34 -2.017,7.378 5.02,14.1 12.343,11.257 4.67,-1.814 6.848,-7.197 9.165,-11.257 5.985,-10.483 16.722,-23.23 19.428,-35 1.681,-7.312 -5.239,-14.23 -12.535,-11.141 m 54.958,29.757 c -5.465,1.259 -8.187,6.944 -10.72,11.384 -6.225,10.911 -16.074,22.927 -19.631,35 -1.927,6.538 2.946,14.089 10.349,12.384 5.104,-1.175 7.752,-6.217 10.151,-10.384 6.371,-11.066 16.683,-23.729 20.197,-36 1.831,-6.393 -3.165,-14.039 -10.346,-12.384 m 174.003,12.917 c -8.465,2.086 -10.927,14.172 -1.986,17.725 10.323,4.101 27.901,0.742 38.982,0.742 4.58,0 10.64,1.009 14.96,-0.742 8.9,-3.61 6.26,-15.314 -1.96,-17.685 -12.119,-3.495 -37.754,-3.056 -49.996,-0.04 m 93.996,0.04 c -6.38,1.841 -7.92,7.499 -8,13.427 -0.17,13.995 0,28.004 0,42 0,5.87 -1.25,13.7 1.94,18.956 2.97,4.894 7.94,5.035 13.06,5.044 12.70003,0.021 33.16003,3.92 44.98003,-0.742 6.87,-2.707 6.02,-10.22 6.02,-16.258 v -41 c 0,-5.422 1.34,-13.102 -2.01,-17.775 -3.17,-4.417 -9.14,-4.217 -13.99,-4.225 -12.73,-0.021 -29.76003,-2.962 -42.00003,0.573 m 40.00003,18.427 v 42 h -29.00003 v -42 h 29.00003 m -498.00003,8 c 23.086,43.83 49.796,85.933 74.281,129 9.119,16.04 26.221,35.86 29.719,54 l -157,90.42003 -69,39.58 c -29.659,-63.52 -75.341,-119.48 -105,-183.00003 l 156,-90.281 47,-27.14 24,-12.579 m -34,33.699 c -15.114,4.882 -30.215,16.973 -44,24.88 -4.801,2.753 -11.775,5.635 -13.482,11.436 -1.505,5.113 1.806,9.768 4.201,13.985 6.044,10.639 11.756,21.805 18.525,31.995 2.685,4.043 6.553,7.542 11.756,6.328 15.409,-3.598 32.423,-17.674 46,-25.72 5.159,-3.057 12.612,-5.865 13.613,-12.604 0.751,-5.06 -2.973,-9.852 -5.332,-13.999 -5.674,-9.976 -16.811,-40.975 -31.281,-36.301 m 398.004,0.834 c -8.465,2.086 -10.927,14.173 -1.986,17.725 10.323,4.101 27.901,0.742 38.982,0.742 4.58,0 10.64,1.009 14.96,-0.742 8.9,-3.61 6.26,-15.314 -1.96,-17.685 -12.119,-3.495 -37.754,-3.056 -49.996,-0.04 m -397.004,20.467 14,25 c -8.637,4.033 -16.721,9.425 -25,14.15 -2.887,1.648 -7.368,5.417 -10.895,4.853 -4.412,-0.705 -15.618,-19.629 -13.277,-23.613 1.81,-3.081 7.179,-4.966 10.172,-6.671 8.148,-4.643 16.165,-10.503 25,-13.719 m 631.00003,28 75.42,131.00003 29.58,52 -152,87.6 -48,27.82 -27,14.58 c -29.66003,-63.52 -75.33703,-119.46 -105.00003,-183 l 57,-32.58003 109.00003,-62.844 61,-34.576 m -737.95603,12.028 c -12.721,6.762 3.949,26.435 8.237,33.972 15.982,28.09 32.456,55.91 48.438,84.00003 4.207,7.39 11.463,26.61 23.092,19.68 11.392,-6.78 -4.861,-26.5 -8.961,-33.68 -15.827,-27.73003 -31.692,-55.47003 -47.861,-83.00003 -4.228,-7.199 -11.403,-27.108 -22.945,-20.972 m 156.957,19.745 c -6.56,0.215 -10.058,6.19 -8.362,12.227 3.552,12.65 14.076,25.64 20.645,37 2.616,4.53 5.729,9.94 11.717,9.71 6.616,-0.26 10.216,-6.71 8.299,-12.71 -4.073,-12.75 -14.181,-25.43 -20.879,-37 -2.616,-4.52 -5.489,-9.421 -11.42,-9.227 m -207.986,9.895 c -14.695,4.298 -0.764,22.252 3.266,29.332 15.982,28.09 32.456,55.91003 48.438,84.00003 4.247,7.46 12.798,30.61 24.266,26.25 14.198,-5.39 -1.388,-24.97 -5.564,-32.25 -16.072,-28.03 -32.067,-56.14003 -48.432,-84.00003 -4.246,-7.23 -10.915,-26.566 -21.974,-23.332 m 781.02503,7.19 c -13.25,5.702 3.25,26.122 7.24,33.142 15.98,28.10003 32.46,55.90003 48.44,84.00003 4.04,7.11 11.23,26.53 22.26,21.55 13.63,-6.15 -1.95,-24.88 -6.4,-32.55 -16.24,-27.97 -32.19,-56.11003 -48.57,-84.00003 -4.45,-7.58 -11.03,-27.269 -22.97,-22.142 m -629.02503,13.882 c -5.671,2.21 -6.734,8.13 -4.662,13.26 5.393,13.36 14.626,28.15 22.89,39.96003 2.861,4.08 7.734,6.35 12.663,4.3 5.269,-2.2 5.83,-8.6 3.88,-13.26 -5.461,-13.06003 -14.294,-25.91003 -21.651,-38.00003 -2.857,-4.69 -7.278,-8.53 -13.12,-6.26 m 577.98503,15.87 c -16.02,3.84 0.55,25.37 4.58,32.39003 16.07,28.04 32.32,55.98 48.42,84 4.29,7.46 10.84,26.5 22,23.56 15.53,-4.09 -0.35,-24.46 -4.42,-31.56 -16.27,-28.37 -32.59,-56.72 -49,-85.00003 -4.16,-7.17 -10.83,-25.96 -21.58,-23.39 m -53,30.00003 c -6.04,1.45 -8.1,7.98 -6.18,13.39 4.58,12.94 14.4,26.29 21.58,38 2.75,4.48 6.68,8.92 12.58,7.31 5.4,-1.47 7.75,-7.23 6.17,-12.31 -4.15,-13.27 -14.83,-27.1 -22.01,-39 -2.62,-4.33 -6.49,-8.74 -12.14,-7.39 m -53.98003,31.13 c -5,1.95 -6.87,7.4 -5.2,12.26 4.62,13.46 14.89,28.06 22.64,39.98 2.8,4.31 7.24,7.33 12.52,5.28 5.68,-2.21 6.74,-8.13 4.67,-13.26 -5.26,-13.02 -14.23,-26.07 -21.65,-38 -2.91,-4.66 -7.07,-8.56 -12.98,-6.26 m 99.98003,50.9 c -15.35,4.2 -31.21,17.44 -45,25.36 -4.98,2.86 -12.04,5.84 -13.55003,12 -1.24,5.06 2.48003,9.87 4.83003,14 5.33,9.37 17.22,41.05 30.72,37.36 15.34,-4.2 31.22,-17.44 45,-25.36 4.98,-2.86 12.04,-5.84 13.55,-12 1.23,-5.03 -2.35,-9.88 -4.7,-14 -5.45,-9.55 -17.08,-41.13 -30.85,-37.36 m 0,21.36 14,25 -37,21 -14,-25 37,-21 m -374.00003,10 v 262 h -211 v -262 h 211 m 134,16 c 36.159,25.82 78.448,45.72 117,67.85 35.65,20.47 70.77003,44.75 108.00003,62.15 -7.08,22.37 -24.89,44.62 -36.58,65 -22.48003,39.22 -43.53003,80.27 -68.42003,118 -18.339,-5.8 -36.276,-20.19 -53,-29.72 -38.796,-22.1 -77.183,-44.93 -116,-67 -13.703,-7.79 -27.304,-15.76 -41,-23.56 -3.849,-2.19 -13.057,-5.6 -14.748,-9.93 -1.463,-3.75 3.545,-9.74 5.351,-12.79 6.274,-10.59 12.176,-21.39 18.408,-32 18.126,-30.86 36.01,-61.89 53.708,-93 7.849,-13.8 15.646,-34.25 27.281,-45 m -326.956,22.74 c -5.18,2.11 -5.036,7.53 -5.044,12.26 v 31 c 0,8.2 -2.996,23.94 1.742,30.94 3.303,4.88 9.104,4.06 14.258,4.06 12.319,0 32.537,3.9 43.956,-0.74 6.384,-2.6 6.042,-10.56 6.044,-16.26 v -39 c 0,-5.92 1.104,-13.59 -2.14,-18.89 -2.985,-4.88 -8.913,-4.11 -13.86,-4.11 -12.576,0 -33.305,-4.01 -44.956,0.74 m 94.971,0 c -7.54,2.98 -7.54,13.54 0,16.52 10.851,4.28 29.341,0.74 40.985,0.74 4.318,0 10.011,0.93 13.956,-1.18 7.213,-3.85 5.766,-14.24 -1.96,-16.39 -10.856,-3.01 -25.735,-0.43 -36.996,-0.43 -4.89,0 -11.36,-1.08 -15.985,0.74 m -53.015,17.26 v 43 h -29 v -43 h 29 m 298.015,15.66 c -5.114,1.58 -7.497,7.07 -10.004,11.34 -6.236,10.62 -16.113,23.11 -19.369,35 -1.989,7.26 3.919,13.6 11.343,11.57 5.264,-1.45 7.508,-7.28 10.026,-11.57 6.194,-10.55 15.556,-22.36 19.289,-34 2.298,-7.17 -3.608,-14.71 -11.285,-12.34 m -245,28.08 c -7.54,2.98 -7.54,13.54 0,16.52 10.851,4.28 29.341,0.74 40.985,0.74 4.318,0 10.011,0.93 13.956,-1.18 7.213,-3.85 5.766,-14.24 -1.96,-16.39 -10.856,-3.01 -25.735,-0.43 -36.996,-0.43 -4.89,0 -11.36,-1.08 -15.985,0.74 m 299.985,2.05 c -5.773,0.33 -8.572,5.83 -11.2,10.21 -6.553,10.91 -16.549,23.78 -20.15,36 -1.729,5.87 1.638,12.78 8.35,12.78 5.827,0 8.865,-5.36 11.421,-9.78 6.666,-11.52 16.922,-24.28 20.876,-37 1.877,-6.04 -2.809,-12.58 -9.297,-12.21 m 52,30.93 c -9.66,1.13 -16.108,19.84 -20.424,27.28 -16.429,28.31 -32.877,56.61 -49.155,85 -3.701,6.46 -17.615,28.75 0.579,27.85 10.272,-0.51 17.156,-20.13 21.579,-27.85 16.645,-29.03 33.096,-58.25 50.221,-87 3.74,-6.29 14.21,-27.27 -2.8,-25.28 m -154.985,21.02 c -4.683,1.82 -6.974,7.18 -9.296,11.26 -5.183,9.11 -24.584,32.27 -18.401,42.81 5.292,9.03 23.805,15.33 32.682,20.59 7.911,4.68 22.18,16.8 31.957,12.86 4.447,-1.8 6.547,-7.41 8.842,-11.26 5.514,-9.26 10.868,-18.64 16.2,-28 2.458,-4.32 5.187,-9 2.543,-13.91 -5.222,-9.69 -25.19,-16.57 -34.542,-21.94 -7.462,-4.28 -20.805,-15.97 -29.985,-12.41 m -291.971,7 c -7.207,2.94 -6.442,14.73 0.971,16.83 10.519,2.97 25.061,0.43 35.985,0.43 h 76 c 9.148,0 30.3,3.9 37.772,-1.74 6.517,-4.93 2.769,-15.3 -4.773,-16.15 -33.091,-3.72 -68.678,-0.11 -101.999,-0.11 -12.312,0 -32.546,-3.91 -43.956,0.74 m 497.996,2.92 c -9.23,2.91 -16.24,22.4 -20.76,30.34 -16.36,28.77 -32.81,57.53 -49.677,86 -3.808,6.43 -12.03,26.51 4.393,23.42 10.004,-1.88 17.244,-22.35 21.854,-30.42 17.81,-31.21 40.21,-62.15 54.74003,-95 3.23,-7.3 -1.47003,-17.2 -10.55003,-14.34 m -163.04,31.34 -13,25 -37,-20 c 1.717,-5.43 8.526,-21.69 14.213,-23.58 3.184,-1.06 7.21,2.26 9.787,3.73 8.668,4.94 17.169,10.2 26,14.85 m -334.956,26.74 c -7.207,2.94 -6.442,14.73 0.971,16.83 10.519,2.97 25.061,0.43 35.985,0.43 h 76 c 9.148,0 30.3,3.9 37.772,-1.74 6.517,-4.93 2.769,-15.3 -4.773,-16.15 -33.091,-3.72 -68.678,-0.11 -101.999,-0.11 -12.312,0 -32.546,-3.91 -43.956,0.74 z"
       id="path434" />
  </g>
</svg>
